#!OML:ASF H:\Terrain\Patient Classification 1\Walking\steve\steve.ASF
:FULLY-SPECIFIED
:DEGREES
31
root 6.89503 15.4169 -30.1032 12.5825 -11.5125 0.0854358
lowerback 0.138773 3.83282 -3.66909
upperback -4.73201 4.90305 -2.76301
thorax -5.04286 2.5268 -1.04254
lowerneck -7.75641 -0.0402387 -3.24132
upperneck 12.4292 -0.60019 7.29327
head 5.03072 0.0262586 2.76475
rclavicle -3.22031e-014 3.18055e-015
rhumerus -51.8926 7.66141 -90.1543
rradius 33.799
rwrist 5.24833
rhand -18.6857 -31.0844
rfingers 7.12502
rthumb 7.60851 -60.9275
lclavicle -3.22031e-014 3.18055e-015
lhumerus -17.1648 8.60758 84.0692
lradius 22.9586
lwrist 8.10841
lhand -22.9707 -13.6182
lfingers 7.12502
lthumb 3.47135 16.3332
rfemur -26.091 0.711756 20.1114
rtibia 65.4056
rfoot -25.9418 -3.80138
rtoes -12.0035
lfemur -25.5153 4.8174 -27.3287
ltibia 40.95
lfoot -22.34 -4.09488
ltoes 0.015001
32
root 6.88926 15.4409 -29.8691 12.4135 -10.9353 0.347614
lowerback 0.0883535 3.36872 -3.96054
upperback -4.68331 4.28762 -2.52139
thorax -4.99596 2.23735 -0.59629
lowerneck -7.92046 0.0656414 -3.32756
upperneck 12.6961 -0.425885 7.06113
head 5.13094 0.0984574 2.72155
rclavicle 3.63776e-014 3.97569e-015
rhumerus -53.2979 7.34144 -89.6442
rradius 33.1128
rwrist 5.22573
rhand -18.1617 -31.2739
rfingers 7.12502
rthumb 8.11423 -61.0982
lclavicle 3.63776e-014 3.97569e-015
lhumerus -15.2194 6.32099 85.3883
lradius 24.4785
lwrist 10.6525
lhand -23.6648 -12.2727
lfingers 7.12502
lthumb 2.80108 17.6886
rfemur -28.1188 0.490066 20.3799
rtibia 65.7735
rfoot -26.2874 -3.16231
rtoes -13.8342
lfemur -24.123 4.69872 -27.4998
ltibia 40.2367
lfoot -22.0056 -3.79749
ltoes -4.52086
33
root 6.88161 15.4633 -29.6375 12.1889 -10.5391 0.641898
lowerback 0.191252 2.92463 -4.29618
upperback -4.68359 3.6834 -2.35754
thorax -5.07522 1.95475 -0.21806
lowerneck -7.7256 0.283142 -3.32386
upperneck 12.6856 -0.11809 6.93874
head 5.07739 0.237273 2.70129
rclavicle 1.0635e-014 1.59028e-014
rhumerus -54.6996 7.00251 -89.1118
rradius 32.4802
rwrist 5.22058
rhand -17.2675 -32.4309
rfingers 7.12502
rthumb 8.97718 -62.2199
lclavicle 1.0635e-014 1.59028e-014
lhumerus -13.1727 4.99576 86.1165
lradius 25.2212
lwrist 12.3288
lhand -24.1581 -13.6384
lfingers 7.12502
lthumb 2.32463 16.3287
rfemur -30.1501 0.585178 20.5502
rtibia 65.9428
rfoot -26.6555 -2.64141
rtoes -15.5922
lfemur -22.7885 4.73626 -27.6994
ltibia 39.6159
lfoot -21.2009 -4.27191
ltoes -4.93174
34
root 6.87586 15.4697 -29.3977 11.9453 -10.1043 1.30623
lowerback 0.276473 2.47516 -4.88473
upperback -4.75928 3.05165 -2.40963
thorax -5.21665 1.66608 0.0787693
lowerneck -7.40663 0.638222 -2.72657
upperneck 12.7799 0.302594 6.74679
head 5.03206 0.454442 2.56759
rclavicle 8.24956e-015 9.54166e-015
rhumerus -56.2595 6.44525 -88.6052
rradius 31.8039
rwrist 5.57109
rhand -16.561 -33.4493
rfingers 7.12502
rthumb 9.6589 -63.2079
lclavicle 8.24956e-015 9.54166e-015
lhumerus -11.327 2.87797 86.4859
lradius 26.0879
lwrist 14.2784
lhand -24.7687 -14.6536
lfingers 7.12502
lthumb 1.73496 15.3191
rfemur -32.2359 0.537192 20.2896
rtibia 65.9509
rfoot -27.04 -1.91422
rtoes -19.5696
lfemur -21.3484 4.54634 -28.2929
ltibia 38.9276
lfoot -20.4277 -5.29084
ltoes -2.89466
35
root 6.8687 15.4703 -29.1533 11.6167 -9.61022 1.90277
lowerback 0.497707 2.00631 -5.45579
upperback -4.82913 2.38491 -2.41474
thorax -5.41857 1.36278 0.414113
lowerneck -7.43256 0.717842 -2.85929
upperneck 12.9841 0.408495 6.81085
head 5.09306 0.50653 2.61926
rclavicle 2.66371e-014 -1.66979e-014
rhumerus -57.8119 5.91723 -87.9674
rradius 31.0813
rwrist 5.99286
rhand -15.8833 -34.131
rfingers 7.12502
rthumb 10.3128 -63.8581
lclavicle 2.66371e-014 -1.66979e-014
lhumerus -9.53159 0.927978 86.6034
lradius 27.1854
lwrist 16.1064
lhand -25.58 -13.7829
lfingers 7.12502
lthumb 0.95139 16.1948
rfemur -34.1221 0.498955 20.0758
rtibia 65.7883
rfoot -27.1442 -1.239
rtoes -22.8687
lfemur -19.5835 4.10226 -28.7506
ltibia 38.043
lfoot -19.7129 -6.7133
ltoes 1.7248
36
root 6.86108 15.4835 -28.9111 11.3001 -9.04131 2.26105
lowerback 0.786355 1.49618 -5.82343
upperback -4.86447 1.67006 -2.28755
thorax -5.60352 1.03118 0.781406
lowerneck -7.41384 0.932989 -2.90179
upperneck 13.1499 0.688497 6.87342
head 5.12577 0.646679 2.66573
rclavicle -1.78906e-015 -2.62396e-014
rhumerus -59.2232 5.55481 -87.0616
rradius 30.2891
rwrist 6.37203
rhand -15.6075 -34.1411
rfingers 7.12502
rthumb 10.5788 -63.8548
lclavicle -1.78906e-015 -2.62396e-014
lhumerus -7.87911 -0.650441 86.5745
lradius 28.5493
lwrist 17.774
lhand -26.0119 -13.7026
lfingers 7.12502
lthumb 0.534254 16.2765
rfemur -35.858 0.654768 20.0281
rtibia 65.385
rfoot -27.056 0.00833126
rtoes -22.2909
lfemur -17.7887 3.64846 -28.9386
ltibia 37.0303
lfoot -18.8907 -7.47816
ltoes 4.52532
37
root 6.85574 15.4936 -28.671 11.0818 -8.47192 2.5327
lowerback 0.893864 0.949535 -6.08017
upperback -4.78308 0.933341 -2.0925
thorax -5.54532 0.679607 1.17117
lowerneck -7.21353 1.30718 -2.84081
upperneck 12.9842 1.20053 6.8219
head 5.01469 0.89121 2.66639
rclavicle -6.31141e-015 -3.81667e-014
rhumerus -60.3827 5.49599 -86.0269
rradius 29.5889
rwrist 6.5501
rhand -16.2224 -33.1543
rfingers 7.12502
rthumb 9.98564 -62.8974
lclavicle -6.31141e-015 -3.81667e-014
lhumerus -6.09201 -2.05003 86.4031
lradius 29.9425
lwrist 19.2662
lhand -25.368 -14.7954
lfingers 7.12502
lthumb 1.15617 15.1812
rfemur -37.6341 0.783334 20.068
rtibia 64.6876
rfoot -26.6728 0.583864
rtoes -23.2769
lfemur -16.1192 3.39061 -29.0731
ltibia 36.0121
lfoot -18.3939 -7.82384
ltoes 4.25665
